<svg width="1920" height="1080" viewBox="0 0 1920 1080" fill="none" xmlns="http://www.w3.org/2000/svg">
  <defs>
    <linearGradient id="bgGradient" x1="0%" y1="0%" x2="100%" y2="100%">
      <stop offset="0%" style="stop-color:#101820;stop-opacity:1" />
      <stop offset="30%" style="stop-color:#1a293b;stop-opacity:1" />
      <stop offset="70%" style="stop-color:#2563eb;stop-opacity:0.8" />
      <stop offset="100%" style="stop-color:#9DDFFF;stop-opacity:0.4" />
    </linearGradient>
    <pattern id="snowflakes" x="0" y="0" width="200" height="200" patternUnits="userSpaceOnUse">
      <circle cx="20" cy="30" r="2" fill="white" opacity="0.3"/>
      <circle cx="150" cy="80" r="1.5" fill="white" opacity="0.2"/>
      <circle cx="80" cy="150" r="1" fill="white" opacity="0.4"/>
      <circle cx="120" cy="50" r="1.5" fill="white" opacity="0.25"/>
      <circle cx="50" cy="120" r="2" fill="white" opacity="0.3"/>
      <circle cx="180" cy="20" r="1" fill="white" opacity="0.35"/>
      <circle cx="30" cy="180" r="1.5" fill="white" opacity="0.2"/>
    </pattern>
  </defs>
  <rect width="1920" height="1080" fill="url(#bgGradient)"/>
  <rect width="1920" height="1080" fill="url(#snowflakes)" opacity="0.8"/>
  
  <!-- Mountain silhouettes -->
  <polygon points="0,800 200,600 400,700 600,500 800,650 1000,550 1200,700 1400,600 1600,750 1800,650 1920,700 1920,1080 0,1080" fill="#0f172a" opacity="0.6"/>
  <polygon points="0,900 300,750 500,850 700,700 900,800 1100,720 1300,850 1500,780 1700,900 1920,850 1920,1080 0,1080" fill="#1e293b" opacity="0.4"/>
</svg>